<?xml version="1.0" encoding="UTF-8"?>
<svg width="285.105356px" height="101.997088px" viewBox="0 0 285.105356 101.997088" version="1.1" xmlns="http://www.w3.org/2000/svg" xmlns:xlink="http://www.w3.org/1999/xlink">
    <title>logo-white</title>
    <g id="Page-1" stroke="none" stroke-width="1" fill="none" fill-rule="evenodd">
        <g id="logo-white" fill="#EEEDE8" fill-rule="nonzero">
            <path d="M14.1875,28.375 C18.880208,28.375 23.255208,29.0937507 27.3125,30.5208333 C31.3645827,31.9375 34.6354173,34.197916 37.125,37.2916667 C39.6093747,40.3906253 40.8541667,44.427084 40.8541667,49.3958333 C40.8541667,53.6614587 39.9843747,57.1614587 38.25,59.8958333 C36.5104173,62.6354173 34.2916667,64.7708333 31.5833333,66.3125 C28.875,67.8437507 26.0260413,68.9270833 23.0416667,69.5625 C20.052084,70.197916 17.3541667,70.5208333 14.9375,70.5208333 C11.6718747,70.5208333 8.9375,70.2343747 6.72916667,69.6666667 C4.52083333,69.09375 2.84375067,68.5312493 1.70833333,67.9583333 C0.567708,67.3906253 0,67.1041667 0,67.1041667 L0,65.3958333 C0,65.3958333 0.625,65.6666667 1.875,66.2083333 C3.125,66.7395827 4.86458267,67.2864587 7.10416667,67.8541667 C9.33854133,68.427084 11.947916,68.7083333 14.9375,68.7083333 C21.4791667,68.7083333 26.1718747,66.9531253 29.0208333,63.4375 C31.8645827,59.9114587 33.2916667,55.2291667 33.2916667,49.3958333 C33.2916667,45.1354173 32.4166667,41.5625 30.6666667,38.6875 C28.927084,35.802084 26.6145827,33.6458333 23.7291667,32.2291667 C20.8541667,30.802084 17.6718747,30.0833333 14.1875,30.0833333 C10.2135413,30.0833333 7.25,30.322916 5.29166667,30.7916667 C3.33333333,31.25 2.35416667,31.4791667 2.35416667,31.4791667 L2.35416667,2.04166667 L36.9166667,2.04166667 L36.9166667,3.85416667 L10.0416667,3.85416667 L10.0416667,28.4791667 C11.3854173,28.4114587 12.7708333,28.375 14.1875,28.375 Z" id="Path"></path>
            <polygon id="Path" points="134.825257 2.04166667 136.637757 2.04166667 115.741924 70.4166667 115.096091 70.4166667 92.491924 14.7291667 69.866924 70.4166667 69.2210907 70.4166667 48.3252573 2.14583333 56.3252573 2.14583333 73.2835907 57.5 91.5335907 12.4791667 95.4710907 2.77083333 95.8877573 2.77083333 117.971091 57.1875"></polygon>
            <polygon id="Path" points="179.620967 3.85416667 153.2668 3.85416667 153.2668 33.1875 176.745967 33.1875 176.745967 35 153.2668 35 153.2668 67.3125 179.620967 67.3125 179.620967 69.125 145.600133 69.125 145.600133 2.04166667 179.620967 2.04166667"></polygon>
            <path d="M187.826733,64 C189.670484,65.5 191.998608,66.8906253 194.8059,68.1666667 C197.623608,69.442708 201.3059,70.0833333 205.847567,70.0833333 C208.764233,70.0833333 211.462151,69.5104173 213.951733,68.375 C216.451733,67.2395827 218.462151,65.5156253 219.9934,63.2083333 C221.519441,60.9062493 222.285067,58.0104173 222.285067,54.5208333 C222.285067,51.5364587 221.6809,49.0833333 220.472567,47.1666667 C219.264233,45.2395827 217.644441,43.6354173 215.6184,42.3541667 C213.587151,41.0781253 211.3684,39.9791667 208.951733,39.0625 C206.535067,38.1354173 204.097567,37.1562493 201.639233,36.125 C199.191316,35.0833333 196.956941,33.8541667 194.9309,32.4375 C192.899649,31.0104173 191.285067,29.177084 190.076733,26.9375 C188.8684,24.7031253 188.264233,21.875 188.264233,18.4583333 C188.264233,15.1145827 188.899649,12.2708333 190.1809,9.9375 C191.456941,7.59375067 193.123608,5.6875 195.1809,4.22916667 C197.248608,2.77083333 199.456941,1.70312533 201.8059,1.02083333 C204.149649,0.343750667 206.389233,0 208.514233,0 C211.357983,0 213.899649,0.343750667 216.139233,1.02083333 C218.389233,1.70312533 220.165275,2.38541733 221.472567,3.0625 C222.790275,3.72916667 223.451733,4.0625 223.451733,4.0625 L223.5559,6.1875 C223.5559,6.1875 222.9309,5.83333333 221.6809,5.125 C220.441316,4.41666667 218.706941,3.6875 216.472567,2.9375 C214.232983,2.1875 211.581941,1.8125 208.514233,1.8125 C203.972567,1.8125 200.436108,3.16666667 197.910067,5.875 C195.378817,8.58333333 194.1184,11.8541667 194.1184,15.6875 C194.1184,18.8854173 194.951733,21.4791667 196.6184,23.4791667 C198.295484,25.4687507 200.436108,27.119792 203.035067,28.4375 C205.628817,29.7604173 208.389233,31.0104173 211.3059,32.1875 C214.222567,33.3541667 216.972567,34.7031253 219.5559,36.2291667 C222.149649,37.7604173 224.269441,39.7656253 225.910067,42.25 C227.545484,44.7395827 228.3684,47.9375 228.3684,51.8541667 C228.3684,55.8281253 227.295484,59.307292 225.160067,62.2916667 C223.035067,65.2812493 220.2434,67.5937507 216.785067,69.2291667 C213.337151,70.8645827 209.691316,71.6875 205.847567,71.6875 C202.014233,71.6875 198.764233,71.255208 196.097567,70.3958333 C193.4309,69.5468747 191.378817,68.7031253 189.951733,67.8541667 C188.535067,66.994792 187.826733,66.5625 187.826733,66.5625 L187.826733,64 Z" id="Path"></path>
            <polygon id="Path" points="285.105356 2.04166667 285.105356 3.85416667 264.417856 3.85416667 264.417856 69.125 256.834523 69.125 256.834523 3.85416667 236.147023 3.85416667 236.147023 2.04166667"></polygon>
            <polygon id="Path" points="73.1715213 94.0804213 73.1715213 93.6637547 84.1923547 93.6637547 84.1923547 94.0804213"></polygon>
            <path d="M92.4434627,101.413755 L92.4434627,86.3304213 L94.1726293,86.3304213 L94.1726293,101.413755 L92.4434627,101.413755 Z M96.0476293,92.684588 L103.485129,101.413755 L101.235129,101.413755 L94.589296,93.622088 L101.693463,86.3304213 L102.235129,86.3304213 L96.0476293,92.684588 Z" id="Shape"></path>
            <polygon id="Path" points="113.118093 86.7262547 107.180593 86.7262547 107.180593 93.3304213 112.47226 93.3304213 112.47226 93.747088 107.180593 93.747088 107.180593 101.017921 113.118093 101.017921 113.118093 101.413755 105.451427 101.413755 105.451427 86.3304213 113.118093 86.3304213"></polygon>
            <path d="M125.829891,101.413755 L123.663224,101.413755 L118.100724,94.4137547 L116.996557,94.4137547 L116.996557,101.413755 L115.267391,101.413755 L115.267391,86.3304213 C115.267391,86.3304213 115.444475,86.3304213 115.809057,86.3304213 C116.168432,86.3304213 116.605932,86.3304213 117.121557,86.3304213 C117.631973,86.3304213 118.142391,86.3304213 118.642391,86.3304213 C119.142391,86.3304213 119.538224,86.3304213 119.829891,86.3304213 C120.131973,86.3304213 120.54864,86.372088 121.079891,86.4554213 C121.621557,86.5387547 122.163224,86.7158387 122.704891,86.9762547 C123.256973,87.2262547 123.725724,87.6116707 124.100724,88.122088 C124.475724,88.622088 124.663224,89.2783373 124.663224,90.0804213 C124.663224,90.872088 124.517391,91.5283373 124.225724,92.0387547 C123.934057,92.55438 123.54864,92.9710467 123.079891,93.2887547 C122.621557,93.5960467 122.131973,93.8304213 121.621557,93.997088 C121.121557,94.1533373 120.642391,94.2575053 120.184057,94.309588 L125.829891,101.413755 Z M116.996557,86.7262547 L116.996557,93.997088 L118.288224,93.997088 C119.704891,93.997088 120.814265,93.7262547 121.621557,93.184588 C122.439265,92.6429213 122.850724,91.7054213 122.850724,90.372088 C122.850724,89.05438 122.501765,88.11688 121.809057,87.559588 C121.111141,87.0075053 120.147599,86.7262547 118.913224,86.7262547 L116.996557,86.7262547 Z" id="Shape"></path>
            <path d="M138.357859,101.413755 L136.191192,101.413755 L130.628692,94.4137547 L129.524525,94.4137547 L129.524525,101.413755 L127.795359,101.413755 L127.795359,86.3304213 C127.795359,86.3304213 127.972443,86.3304213 128.337025,86.3304213 C128.6964,86.3304213 129.1339,86.3304213 129.649525,86.3304213 C130.159941,86.3304213 130.670359,86.3304213 131.170359,86.3304213 C131.670359,86.3304213 132.066192,86.3304213 132.357859,86.3304213 C132.659941,86.3304213 133.076608,86.372088 133.607859,86.4554213 C134.149525,86.5387547 134.691192,86.7158387 135.232859,86.9762547 C135.784941,87.2262547 136.253692,87.6116707 136.628692,88.122088 C137.003692,88.622088 137.191192,89.2783373 137.191192,90.0804213 C137.191192,90.872088 137.045359,91.5283373 136.753692,92.0387547 C136.462025,92.55438 136.076608,92.9710467 135.607859,93.2887547 C135.149525,93.5960467 134.659941,93.8304213 134.149525,93.997088 C133.649525,94.1533373 133.170359,94.2575053 132.712025,94.309588 L138.357859,101.413755 Z M129.524525,86.7262547 L129.524525,93.997088 L130.816192,93.997088 C132.232859,93.997088 133.342233,93.7262547 134.149525,93.184588 C134.967233,92.6429213 135.378692,91.7054213 135.378692,90.372088 C135.378692,89.05438 135.029733,88.11688 134.337025,87.559588 C133.639109,87.0075053 132.675567,86.7262547 131.441192,86.7262547 L129.524525,86.7262547 Z" id="Shape"></path>
            <polygon id="Path" points="140.573327 101.413755 140.573327 86.3304213 142.302493 86.3304213 142.302493 101.413755"></polygon>
            <path d="M144.618813,100.267921 C145.03548,100.601255 145.556313,100.913755 146.181313,101.205421 C146.816731,101.497088 147.650064,101.642921 148.681313,101.642921 C149.332355,101.642921 149.936521,101.517921 150.493813,101.267921 C151.061521,101.007505 151.514647,100.61688 151.84798,100.101255 C152.191731,99.5752133 152.368813,98.9137547 152.368813,98.122088 C152.368813,97.4554213 152.228188,96.9085467 151.952147,96.4762547 C151.686521,96.049172 151.327147,95.684588 150.868813,95.3929213 C150.420896,95.1012547 149.920896,94.8512547 149.368813,94.6429213 C148.827147,94.434588 148.275064,94.2210467 147.72298,93.997088 C147.181313,93.7627133 146.681313,93.4866707 146.22298,93.1637547 C145.764647,92.8460467 145.394855,92.434588 145.118813,91.934588 C144.853188,91.424172 144.72298,90.7835467 144.72298,90.0179213 C144.72298,89.2679213 144.858397,88.6325053 145.139647,88.1012547 C145.431313,87.5752133 145.806313,87.1533373 146.264647,86.8304213 C146.733397,86.497088 147.233397,86.2575053 147.764647,86.1012547 C148.290688,85.9502133 148.795896,85.872088 149.28548,85.872088 C149.920896,85.872088 150.493813,85.9502133 150.993813,86.1012547 C151.493813,86.2575053 151.889647,86.4085467 152.181313,86.559588 C152.483397,86.7002133 152.639647,86.7679213 152.639647,86.7679213 L152.66048,87.247088 C152.66048,87.247088 152.519855,87.174172 152.243813,87.0179213 C151.962563,86.8512547 151.566731,86.684588 151.056313,86.5179213 C150.556313,86.3512547 149.962563,86.2679213 149.28548,86.2679213 C148.254229,86.2679213 147.457355,86.5752133 146.889647,87.184588 C146.316731,87.799172 146.03548,88.5335467 146.03548,89.3929213 C146.03548,90.11688 146.22298,90.7002133 146.59798,91.1429213 C146.97298,91.5908387 147.452147,91.9658387 148.03548,92.2679213 C148.629229,92.559588 149.254229,92.8408387 149.91048,93.1012547 C150.561521,93.36688 151.181313,93.674172 151.764647,94.0179213 C152.34798,94.36688 152.816731,94.820004 153.181313,95.372088 C153.556313,95.92938 153.743813,96.6533373 153.743813,97.5387547 C153.743813,98.42938 153.499021,99.2158387 153.014647,99.8929213 C152.540688,100.559588 151.915688,101.075213 151.139647,101.434588 C150.358397,101.809588 149.540688,101.997088 148.681313,101.997088 C147.816731,101.997088 147.082355,101.898129 146.47298,101.705421 C145.874021,101.507505 145.415688,101.325213 145.09798,101.142921 C144.775064,100.950213 144.618813,100.851255 144.618813,100.851255 L144.618813,100.267921 Z" id="Path"></path>
            <path d="M162.10128,86.3304213 C162.642947,86.3304213 163.252321,86.3825053 163.934613,86.4762547 C164.611697,86.559588 165.293988,86.74188 165.97628,87.0179213 C166.653364,87.299172 167.273155,87.7002133 167.830447,88.2262547 C168.382529,88.7575053 168.835655,89.4554213 169.184613,90.3304213 C169.528364,91.2054213 169.705447,92.30438 169.705447,93.622088 C169.705447,94.9866707 169.507529,96.122088 169.122113,97.0387547 C168.747113,97.9554213 168.247113,98.7002133 167.622113,99.2679213 C166.997113,99.8408387 166.320031,100.278337 165.60128,100.580421 C164.892947,100.887713 164.205447,101.096047 163.53878,101.205421 C162.882529,101.320005 162.320031,101.382505 161.85128,101.392921 C161.377321,101.403338 161.080447,101.413755 160.955447,101.413755 L155.85128,101.413755 L155.85128,86.3304213 L162.10128,86.3304213 Z M160.91378,101.017921 C161.731488,101.017921 162.559613,100.908547 163.392947,100.684588 C164.22628,100.450213 164.981488,100.059588 165.66378,99.5179213 C166.356488,98.9762547 166.91378,98.2262547 167.330447,97.2679213 C167.747113,96.309588 167.955447,95.0960467 167.955447,93.622088 C167.955447,92.4554213 167.809613,91.4658387 167.517947,90.6429213 C167.22628,89.8252133 166.835655,89.1585467 166.35128,88.6429213 C165.861697,88.1325053 165.320031,87.74188 164.72628,87.4762547 C164.142947,87.2002133 163.53878,87.0127133 162.91378,86.9137547 C162.299196,86.80438 161.72628,86.747088 161.184613,86.747088 L157.580447,86.747088 L157.580447,101.017921 L160.91378,101.017921 Z" id="Shape"></path>
            <path d="M183.351071,101.413755 L180.767737,95.3512547 L174.892737,95.3512547 L172.205237,101.413755 L171.642737,101.413755 L178.496904,86.0387547 L178.642737,86.0387547 L185.205237,101.413755 L183.351071,101.413755 Z M175.080237,94.9554213 L180.601071,94.9554213 L177.892737,88.622088 L175.080237,94.9554213 Z" id="Shape"></path>
            <polygon id="Path" points="188.948365 101.017921 194.948365 101.017921 194.948365 101.413755 187.219199 101.413755 187.219199 86.3304213 188.948365 86.3304213"></polygon>
            <polygon id="Path" points="204.677841 86.7262547 198.740341 86.7262547 198.740341 93.3304213 204.032008 93.3304213 204.032008 93.747088 198.740341 93.747088 198.740341 101.017921 204.677841 101.017921 204.677841 101.413755 197.011175 101.413755 197.011175 86.3304213 204.677841 86.3304213"></polygon>
            <polygon id="Path" points="212.827121 94.0804213 212.827121 93.6637547 223.847955 93.6637547 223.847955 94.0804213"></polygon>
        </g>
    </g>
</svg>