<?xml version="1.0" standalone="no"?>
<!DOCTYPE svg PUBLIC "-//W3C//DTD SVG 1.1//EN" "http://www.w3.org/Graphics/SVG/1.1/DTD/svg11.dtd" >
<svg xmlns="http://www.w3.org/2000/svg" xmlns:xlink="http://www.w3.org/1999/xlink" version="1.1">
<metadata>
Created by FontForge 20201107 at Wed Dec  7 11:30:10 2022
 By 
Copyright (C) 2022 by UICreative. All Right Reserved
</metadata>
<defs>
<font id="HeadstockSansThinItalic" horiz-adv-x="164" >
  <font-face 
    font-family="HeadstockSans Thin Italic"
    font-weight="400"
    font-style="italic"
    font-stretch="normal"
    units-per-em="1000"
    panose-1="0 0 0 0 0 0 0 0 0 0"
    ascent="800"
    descent="-200"
    bbox="-60 -151 906.024 805"
    underline-thickness="0"
    underline-position="0"
    unicode-range="U+000A-00BF"
  />
<missing-glyph horiz-adv-x="487" 
d="M599 696l-159 -692h-390l160 692h389zM223 684l104 -321l254 321h-358zM69 35l248 315l-102 314zM427 17l-105 320l-252 -320h357zM582 666l-250 -316l103 -317z" />
    <glyph glyph-name=".notdef" horiz-adv-x="487" 
d="M599 696l-159 -692h-390l160 692h389zM223 684l104 -321l254 321h-358zM69 35l248 315l-102 314zM427 17l-105 320l-252 -320h357zM582 666l-250 -316l103 -317z" />
    <glyph glyph-name=".null" horiz-adv-x="0" 
 />
    <glyph glyph-name="nonmarkingreturn" horiz-adv-x="333" 
 />
    <glyph glyph-name="controlLF" unicode="&#xa;" horiz-adv-x="0" 
 />
    <glyph glyph-name="space" unicode=" " horiz-adv-x="308" 
 />
    <glyph glyph-name="exclam" unicode="!" horiz-adv-x="197" 
d="M129 177l76 521h109l-172 -521h-13zM123 116q22 0 32.5 -16t5.5 -40q-6 -25 -23.5 -40.5t-39.5 -15.5t-32.5 15.5t-4.5 40.5q5 24 22.5 40t39.5 16z" />
    <glyph glyph-name="quotedbl" unicode="&#x22;" horiz-adv-x="285" 
d="M417 713l-69 -209h-31l26 209h74zM198 713h74l-70 -209h-30z" />
    <glyph glyph-name="numbersign" unicode="#" horiz-adv-x="494" 
d="M382 206h93l-27 -63h-93l-62 -139h-23l62 139h-129l-62 -139h-51l63 139h-82l29 63h80l67 149h-106l9 23h105l56 126h50l-56 -126h130l55 126h22l-55 -126h90l-9 -23h-89zM359 206l68 149h-130l-67 -149h129z" />
    <glyph glyph-name="dollar" unicode="$" horiz-adv-x="564" 
d="M394 410q55 -16 100 -42q38 -21 61 -52q20 -27 23 -62q2 -28 -5 -55q-1 -3 -2.5 -10t-2.5 -11q-12 -38 -40 -69q-57 -65 -152 -92q-35 -10 -83 -12l-17 -74h-23l17 74h-3q-78 3 -129.5 41.5t-70.5 90.5l55 28q21 -51 59 -93t90 -48h4l67 291q-64 22 -97 41q-41 23 -65 53
q-22 28 -25 62q-3 25 3 53q11 50 44 89q57 68 147 94q40 11 86 13l17 73h23l-17 -74q67 -5 108 -26q47 -25 79 -80l-51 -29q-31 60 -61 86q-29 26 -79 31l-67 -289q1 0 3.5 -1t3.5 -1zM217 546q-2 -19 4 -34q6 -16 24 -33q33 -31 121 -60l65 282q-45 -2 -75 -13
q-80 -29 -119 -86q-14 -22 -18 -40q-2 -10 -2 -16zM433 61q63 40 79 99q0 2 1 5.5t2 5.5q4 21 3 36q-3 23 -21 39q-16 16 -53 32t-81 30l-65 -285q80 3 135 38z" />
    <glyph glyph-name="ampersand" unicode="&#x26;" horiz-adv-x="599" 
d="M490 563q-6 -26 -21.5 -50t-39.5 -44t-39 -30.5t-38 -24.5q-6 -4 -11 -7l104 -189q29 32 73 88l14 -8q-57 -71 -79 -97q23 -45 45 -93q26 -54 50 -102h-88q-29 63 -64 127l-3 -5q-62 -74 -101 -99t-85 -25q-76 0 -108.5 56.5t-15.5 128.5q16 66 52 103.5t119 92.5l4 3
l-2 3q-50 68 -32 145q17 70 63 115.5t101 45.5q64 0 89 -39.5t13 -94.5zM286 562q-9 -40 1.5 -70t42.5 -70l2 1q29 12 57.5 53.5t38.5 84.5q13 45 2.5 82t-45.5 37q-72 0 -99 -118zM242 68q38 0 69.5 14.5t73.5 63.5l3 2q-27 52 -57 108q-44 80 -64 119l-3 -2
q-87 -60 -109 -157q-16 -70 12 -109t75 -39z" />
    <glyph glyph-name="quotesingle" unicode="'" horiz-adv-x="140" 
d="M272 713l-70 -209h-30l26 209h74z" />
    <glyph glyph-name="parenleft" unicode="(" horiz-adv-x="205" 
d="M230 -62l-8 -33h-4q-65 8 -97 58q-34 53 -37 113q0 20 4 70q7 55 11 78q16 66 44 189q4 16 8 34t6 26.5t2 9.5q10 37 24 76q11 30 29 69q31 63 89 116q55 49 129 60l-7 -31h-4q-47 0 -91 -56q-33 -42 -57 -99t-31 -90q-60 -258 -68 -299q-22 -92 -17 -178q6 -113 71 -113
h4z" />
    <glyph glyph-name="parenright" unicode=")" horiz-adv-x="208" 
d="M140 771l7 33l5 -1q66 -8 97 -57q33 -51 36 -114q0 -32 -3 -70q-5 -39 -12 -77q-35 -161 -49 -219q-2 -10 -11 -41q-9 -33 -24 -75q-13 -38 -28 -69q-32 -66 -89 -116q-55 -49 -129 -60l7 31h4q29 0 58 24q86 75 145 326q33 144 44 194q22 92 17 178q-6 113 -71 113h-4z
" />
    <glyph glyph-name="asterisk" unicode="*" horiz-adv-x="355" 
d="M343 572q21 -24 54 -87l-56 -36q-15 34 -37 105q-49 -68 -83 -105l-39 36q63 64 98 92q-59 13 -106 27l32 60q65 -27 94 -48q10 76 19 122h57q-10 -38 -39 -121q52 24 118 47l5 -60q-60 -19 -122 -27z" />
    <glyph glyph-name="plus" unicode="+" horiz-adv-x="446" 
d="M331 331h164l-7 -28h-163l-46 -199h-64l46 199h-164l7 28h164l44 195h64z" />
    <glyph glyph-name="comma" unicode="," horiz-adv-x="179" 
d="M100 103q26 0 43 -25.5t6 -71.5q-11 -49 -50.5 -83t-86.5 -49l-4 21q78 36 89 84q5 24 -7.5 36t-39.5 19q-10 5 -5 25q4 18 18.5 31t36.5 13z" />
    <glyph glyph-name="hyphen" unicode="-" horiz-adv-x="313" 
d="M88 254l15 68h254l-15 -68h-254z" />
    <glyph glyph-name="period" unicode="." 
d="M108 116q22 0 32.5 -16t5.5 -40q-6 -25 -24 -40.5t-40 -15.5t-32 15.5t-4 40.5q5 24 22.5 40t39.5 16z" />
    <glyph glyph-name="slash" unicode="/" horiz-adv-x="419" 
d="M52 4l403 694h74l-403 -694h-74z" />
    <glyph glyph-name="colon" unicode=":" horiz-adv-x="175" 
d="M113 116q22 0 32.5 -16t5.5 -40q-6 -25 -23.5 -40.5t-39.5 -15.5t-32.5 15.5t-4.5 40.5q5 24 22.5 40t39.5 16zM178 394q-22 0 -32.5 15.5t-4.5 40.5q5 24 22.5 40t39.5 16t32.5 -16t5.5 -40q-6 -25 -23.5 -40.5t-39.5 -15.5z" />
    <glyph glyph-name="semicolon" unicode=";" horiz-adv-x="188" 
d="M185 400q-22 0 -32 15.5t-4 40.5q5 24 22.5 40t39.5 16t32.5 -16t5.5 -40q-6 -25 -24 -40.5t-40 -15.5zM105 103q26 0 43 -25.5t6 -71.5q-11 -49 -51 -83t-87 -49l-4 21q78 36 89 84q5 24 -7.5 36t-38.5 19q-11 5 -6 25q4 18 19 31t37 13z" />
    <glyph glyph-name="equal" unicode="=" horiz-adv-x="406" 
d="M396 104h-337l15 68h337zM432 262h-337l16 68h337z" />
    <glyph glyph-name="question" unicode="?" horiz-adv-x="463" 
d="M398 711q60 0 101.5 -28t55.5 -78q8 -28 -2 -69q-1 -2 -1 -5t-1 -4q-11 -35 -28 -62t-41.5 -47t-41.5 -30.5t-48 -26.5q-30 -16 -46.5 -26t-39 -29t-36.5 -44t-22 -58l-2 -10q-1 -2 -4 -19h-21l11 46q19 82 105 143l9 6q30 20 49.5 36t44.5 50.5t34 74.5q6 37 4 73
t-26.5 62.5t-67.5 26.5q-40 0 -76.5 -36t-55 -74t-27.5 -70l-78 10q0 1 1 3q4 17 12 36.5t27 47.5t45 49t69.5 36.5t96.5 15.5zM214 116q22 0 33 -16t6 -40q-6 -25 -24 -40.5t-40 -15.5t-32.5 15.5t-4.5 40.5q5 24 22.5 40t39.5 16z" />
    <glyph glyph-name="at" unicode="@" horiz-adv-x="863" 
d="M592 694q166 0 253.5 -105t48.5 -275q-27 -118 -100 -209t-150 -91h-74l22 94l-10 -13q-65 -88 -178 -88q-101 0 -152 68q-50 67 -32 168l4 21q28 104 115 175q79 64 180 64q82 0 131 -58q73 -84 41 -222l-45 -195h4q67 0 133 87.5t92 198.5q19 93 2.5 161t-62.5 112.5
t-104.5 66t-123.5 21.5q-158 0 -290.5 -120t-169.5 -281q-24 -103 4 -195t102.5 -149t178.5 -57q67 0 162 38l3 -16q-102 -41 -179 -41q-161 0 -247.5 123.5t-46.5 296.5q40 174 183 297t305 123zM409 28q71 0 125 41q57 43 76 117q2 10 30 131q19 80 -21.5 122.5
t-104.5 42.5q-76 0 -135 -62q-60 -64 -83 -167q-23 -106 7 -165q30 -60 106 -60z" />
    <glyph glyph-name="bracketleft" unicode="[" 
d="M270 681l-161 -696q-3 -15 3.5 -26t19.5 -15.5t22 -6.5t18 -3l-7 -30h-14q-18 1 -35 5t-36.5 14.5t-27.5 32t-1 51.5l155 672q7 30 25.5 52t41.5 32t43 14.5t37 4.5h15l-5 -22q-79 -16 -93 -79z" />
    <glyph glyph-name="bracketright" unicode="]" 
d="M117 7q-7 -30 -25 -51.5t-41.5 -32t-42.5 -14.5t-38 -5h-15l7 30q76 5 87 51l160 696q5 21 0 37t-17.5 24.5t-21 12t-17.5 5.5l5 22h14q18 0 35.5 -4.5t36 -14.5t27 -32t1.5 -52z" />
    <glyph glyph-name="underscore" unicode="_" horiz-adv-x="593" 
d="M27 -96l10 43h495l-10 -43h-495z" />
    <glyph glyph-name="braceleft" unicode="{" horiz-adv-x="215" 
d="M313 640q-40 -168 -57 -204q-18 -37 -57 -71q-4 -4 -5 -7q-1 -2 2 -7q23 -32 24 -70q1 -39 -36 -202q-4 -19 -10 -42t-8 -33q-9 -39 12 -55.5t45 -17.5l-6 -27q-18 0 -36 5t-37 16t-27 33t-1 52q52 221 45 252q-8 38 -32 53q-17 10 -12 41v2l1 1v1q9 31 31 41
q31 15 56 53q20 29 70 245q7 30 25.5 52t42 33t43.5 16t38 5l-6 -28q-25 -1 -53 -15t-35 -44q-2 -11 -7.5 -35.5t-9.5 -42.5z" />
    <glyph glyph-name="verticalbar" unicode="|" horiz-adv-x="155" 
d="M20 -126l207 894h57l-206 -894h-58z" />
    <glyph glyph-name="braceright" unicode="}" horiz-adv-x="215" 
d="M213 705q9 39 -12 55.5t-45 17.5l6 27q18 0 36 -5t37 -16t27 -33t1 -52q-52 -221 -45 -252q8 -38 32 -53q17 -10 12 -41q0 -1 -0.5 -1t-0.5 -1v-2q-9 -31 -31 -41q-30 -14 -56 -54q-20 -30 -70 -244q-7 -30 -25.5 -52t-42 -33t-43.5 -16t-38 -5l6 28q25 1 52.5 15
t34.5 44q2 7 7.5 31.5t10.5 45.5q40 170 57 205q18 37 57 71q2 2 4 7q1 3 -1 7q-23 32 -24 70q-1 39 36 202q4 19 10 42t8 33z" />
    <glyph glyph-name="exclamdown" unicode="&#xa1;" horiz-adv-x="186" 
d="M124 -96h-109l171 521h14zM205 486q-22 0 -32.5 16t-5.5 40q6 24 24 39.5t40 15.5t32.5 -15t4.5 -40q-5 -24 -23 -40t-40 -16z" />
    <glyph glyph-name="cent" unicode="&#xa2;" horiz-adv-x="518" 
d="M399 517q23 0 43 -3l86 167l20 -7l-84 -165l3 -1q89 -27 106 -111l-36 -7q-8 25 -29 50t-56 38l-4 1l-218 -426q27 -15 57 -15q88 0 177 92l40 -15q-41 -46 -99 -74t-124 -28q-34 0 -67 10l-89 -174l-20 8l89 174q0 1 -2 1t-2 1q-42 21 -64 53q-52 72 -28 177
q24 106 111 180q86 74 190 74zM173 263q-22 -96 10 -160q7 -15 29 -37l215 419q-17 3 -35 3q-72 0 -135 -65q-62 -64 -84 -160z" />
    <glyph glyph-name="guillemotleft" unicode="&#xab;" horiz-adv-x="379" 
d="M299 304l70 -200h-64l-70 199l162 200h63zM238 104h-64l-70 199l163 200h62l-161 -199z" />
    <glyph glyph-name="guillemotright" unicode="&#xbb;" horiz-adv-x="379" 
d="M415 304l-162 -200h-62l161 199l-70 200h63zM284 304l-162 -200h-62l161 199l-70 200h64z" />
    <glyph glyph-name="questiondown" unicode="&#xbf;" horiz-adv-x="456" 
d="M357 420q1 2 4 19h21l-11 -46q-19 -82 -105 -143l-9 -6q-30 -20 -49.5 -36t-44.5 -50.5t-34 -74.5q-6 -37 -4 -73t26.5 -62t67.5 -26q40 0 76.5 36t55 73.5t27.5 69.5l78 -9v-2l-1 -2q-5 -23 -18 -48.5t-40 -59t-77 -55t-115 -21.5q-60 0 -101.5 27.5t-55.5 77.5
q-8 28 2 70q0 1 1 4t1 5q11 35 27.5 61.5t41 46.5t41 30t48.5 27q30 16 46.5 26t39.5 29t37 44t22 58zM389 499q-22 0 -32.5 16t-5.5 40q6 25 23.5 40t39.5 15t32.5 -15t4.5 -40q-5 -24 -22.5 -40t-39.5 -16z" />
  </font>
</defs>
</svg>
